<mxfile host="app.diagrams.net" modified="2024-01-24T16:52:45.608Z" agent="Mozilla/5.0 (Windows NT 10.0; Win64; x64) AppleWebKit/537.36 (KHTML, like Gecko) Chrome/118.0.0.0 YaBrowser/23.11.0.0 Safari/537.36" etag="rGO75dtisbI6lTeN7IvR" version="23.0.1" type="google">
  <diagram name="Страница — 1" id="6IkeemknqDPYbbmQY8oC">
    <mxGraphModel grid="1" page="1" gridSize="10" guides="1" tooltips="1" connect="1" arrows="1" fold="1" pageScale="1" pageWidth="827" pageHeight="1169" math="0" shadow="0">
      <root>
        <mxCell id="0" />
        <mxCell id="1" parent="0" />
        <mxCell id="-0XjXucxCyeOP2yGC-h8-1" value="&lt;span style=&quot;font-size: 22px;&quot;&gt;&lt;b&gt;КОНЦЕПТУАЛЬНАЯ &lt;br&gt;МОДЕЛЬ &lt;br&gt;БД&lt;br&gt;&lt;br&gt;&lt;/b&gt;&lt;/span&gt;" style="text;html=1;strokeColor=none;fillColor=none;align=center;verticalAlign=middle;whiteSpace=wrap;rounded=0;" vertex="1" parent="1">
          <mxGeometry x="230" y="310" width="320" height="160" as="geometry" />
        </mxCell>
        <mxCell id="-0XjXucxCyeOP2yGC-h8-2" value="credits" style="swimlane;fontStyle=0;childLayout=stackLayout;horizontal=1;startSize=30;horizontalStack=0;resizeParent=1;resizeParentMax=0;resizeLast=0;collapsible=1;marginBottom=0;whiteSpace=wrap;html=1;" vertex="1" parent="1">
          <mxGeometry x="140" y="440" width="140" height="170" as="geometry">
            <mxRectangle x="190" y="460" width="80" height="30" as="alternateBounds" />
          </mxGeometry>
        </mxCell>
        <mxCell id="-0XjXucxCyeOP2yGC-h8-3" value="credits_id int&lt;br&gt;&lt;br&gt;credit_number text&lt;br&gt;&lt;br&gt;credit_data text&lt;br&gt;&lt;br&gt;credit_code text" style="text;strokeColor=none;fillColor=none;align=left;verticalAlign=middle;spacingLeft=4;spacingRight=4;overflow=hidden;points=[[0,0.5],[1,0.5]];portConstraint=eastwest;rotatable=0;whiteSpace=wrap;html=1;" vertex="1" parent="-0XjXucxCyeOP2yGC-h8-2">
          <mxGeometry y="30" width="140" height="140" as="geometry" />
        </mxCell>
        <mxCell id="-0XjXucxCyeOP2yGC-h8-4" value="users" style="swimlane;fontStyle=0;childLayout=stackLayout;horizontal=1;startSize=30;horizontalStack=0;resizeParent=1;resizeParentMax=0;resizeLast=0;collapsible=1;marginBottom=0;whiteSpace=wrap;html=1;" vertex="1" parent="1">
          <mxGeometry x="640" y="560" width="140" height="170" as="geometry" />
        </mxCell>
        <mxCell id="-0XjXucxCyeOP2yGC-h8-5" value="user_id int&lt;br&gt;&lt;br&gt;login text&lt;br&gt;&lt;br&gt;email text&lt;br&gt;&lt;br&gt;passwd text&lt;br&gt;&lt;br&gt;phone_number text" style="text;strokeColor=none;fillColor=none;align=left;verticalAlign=middle;spacingLeft=4;spacingRight=4;overflow=hidden;points=[[0,0.5],[1,0.5]];portConstraint=eastwest;rotatable=0;whiteSpace=wrap;html=1;" vertex="1" parent="-0XjXucxCyeOP2yGC-h8-4">
          <mxGeometry y="30" width="140" height="140" as="geometry" />
        </mxCell>
        <mxCell id="-0XjXucxCyeOP2yGC-h8-6" value="services" style="swimlane;fontStyle=0;childLayout=stackLayout;horizontal=1;startSize=30;horizontalStack=0;resizeParent=1;resizeParentMax=0;resizeLast=0;collapsible=1;marginBottom=0;whiteSpace=wrap;html=1;" vertex="1" parent="1">
          <mxGeometry x="140" y="720" width="140" height="190" as="geometry" />
        </mxCell>
        <mxCell id="-0XjXucxCyeOP2yGC-h8-7" value="service_id int&lt;br&gt;&lt;br&gt;service name text&lt;br&gt;&lt;br&gt;login_service text&lt;br&gt;&lt;br&gt;passwd_service text" style="text;strokeColor=none;fillColor=none;align=left;verticalAlign=middle;spacingLeft=4;spacingRight=4;overflow=hidden;points=[[0,0.5],[1,0.5]];portConstraint=eastwest;rotatable=0;whiteSpace=wrap;html=1;" vertex="1" parent="-0XjXucxCyeOP2yGC-h8-6">
          <mxGeometry y="30" width="140" height="160" as="geometry" />
        </mxCell>
        <mxCell id="eq9t37Cnku2IbMpQX6qb-3" value="conn_UC" style="swimlane;fontStyle=0;childLayout=stackLayout;horizontal=1;startSize=30;horizontalStack=0;resizeParent=1;resizeParentMax=0;resizeLast=0;collapsible=1;marginBottom=0;whiteSpace=wrap;html=1;" vertex="1" parent="1">
          <mxGeometry x="400" y="440" width="90" height="110" as="geometry">
            <mxRectangle x="190" y="460" width="80" height="30" as="alternateBounds" />
          </mxGeometry>
        </mxCell>
        <mxCell id="eq9t37Cnku2IbMpQX6qb-4" value="credits_id int&lt;br&gt;&lt;br&gt;user_id" style="text;strokeColor=none;fillColor=none;align=left;verticalAlign=middle;spacingLeft=4;spacingRight=4;overflow=hidden;points=[[0,0.5],[1,0.5]];portConstraint=eastwest;rotatable=0;whiteSpace=wrap;html=1;" vertex="1" parent="eq9t37Cnku2IbMpQX6qb-3">
          <mxGeometry y="30" width="90" height="80" as="geometry" />
        </mxCell>
        <mxCell id="eq9t37Cnku2IbMpQX6qb-5" value="conn_US" style="swimlane;fontStyle=0;childLayout=stackLayout;horizontal=1;startSize=30;horizontalStack=0;resizeParent=1;resizeParentMax=0;resizeLast=0;collapsible=1;marginBottom=0;whiteSpace=wrap;html=1;" vertex="1" parent="1">
          <mxGeometry x="400" y="720" width="90" height="110" as="geometry">
            <mxRectangle x="190" y="460" width="80" height="30" as="alternateBounds" />
          </mxGeometry>
        </mxCell>
        <mxCell id="eq9t37Cnku2IbMpQX6qb-6" value="service_id int&lt;br&gt;&lt;br&gt;user_id" style="text;strokeColor=none;fillColor=none;align=left;verticalAlign=middle;spacingLeft=4;spacingRight=4;overflow=hidden;points=[[0,0.5],[1,0.5]];portConstraint=eastwest;rotatable=0;whiteSpace=wrap;html=1;" vertex="1" parent="eq9t37Cnku2IbMpQX6qb-5">
          <mxGeometry y="30" width="90" height="80" as="geometry" />
        </mxCell>
        <mxCell id="eq9t37Cnku2IbMpQX6qb-7" style="edgeStyle=orthogonalEdgeStyle;rounded=0;orthogonalLoop=1;jettySize=auto;html=1;entryX=0.02;entryY=0.114;entryDx=0;entryDy=0;entryPerimeter=0;exitX=1;exitY=0.76;exitDx=0;exitDy=0;exitPerimeter=0;" edge="1" parent="1" source="eq9t37Cnku2IbMpQX6qb-4" target="-0XjXucxCyeOP2yGC-h8-5">
          <mxGeometry relative="1" as="geometry" />
        </mxCell>
        <mxCell id="eq9t37Cnku2IbMpQX6qb-8" style="edgeStyle=orthogonalEdgeStyle;rounded=0;orthogonalLoop=1;jettySize=auto;html=1;entryX=0.997;entryY=0.217;entryDx=0;entryDy=0;entryPerimeter=0;exitX=0.022;exitY=0.3;exitDx=0;exitDy=0;exitPerimeter=0;" edge="1" parent="1" source="eq9t37Cnku2IbMpQX6qb-4" target="-0XjXucxCyeOP2yGC-h8-3">
          <mxGeometry relative="1" as="geometry" />
        </mxCell>
        <mxCell id="eq9t37Cnku2IbMpQX6qb-9" style="edgeStyle=orthogonalEdgeStyle;rounded=0;orthogonalLoop=1;jettySize=auto;html=1;entryX=-0.009;entryY=0.12;entryDx=0;entryDy=0;entryPerimeter=0;exitX=1.018;exitY=0.73;exitDx=0;exitDy=0;exitPerimeter=0;endArrow=none;endFill=0;" edge="1" parent="1" source="eq9t37Cnku2IbMpQX6qb-6" target="-0XjXucxCyeOP2yGC-h8-5">
          <mxGeometry relative="1" as="geometry" />
        </mxCell>
        <mxCell id="eq9t37Cnku2IbMpQX6qb-10" style="edgeStyle=orthogonalEdgeStyle;rounded=0;orthogonalLoop=1;jettySize=auto;html=1;entryX=1.003;entryY=0.255;entryDx=0;entryDy=0;entryPerimeter=0;exitX=0.004;exitY=0.34;exitDx=0;exitDy=0;exitPerimeter=0;" edge="1" parent="1" source="eq9t37Cnku2IbMpQX6qb-6" target="-0XjXucxCyeOP2yGC-h8-7">
          <mxGeometry relative="1" as="geometry" />
        </mxCell>
      </root>
    </mxGraphModel>
  </diagram>
</mxfile>
